<?xml version="1.0" encoding="utf-8"?>
<!-- Generator: Adobe Illustrator 19.0.0, SVG Export Plug-In . SVG Version: 6.00 Build 0)  -->
<svg version="1.1" id="layer" xmlns="http://www.w3.org/2000/svg" xmlns:xlink="http://www.w3.org/1999/xlink" x="0px" y="0px"
	 viewBox="-153 -46 652 652" style="enable-background:new -153 -46 652 652;" xml:space="preserve">
<path d="M-62.2,290.7l-17-39.9l-17,39.9H-62.2z M-62,329.9l12-10.6l-8.1-19.3h-41.7l-8.1,18.8l12.6,11.1H-131l12.8-11.5l44.7-100.6
	L-29,318.6l12.9,11.4H-62z"/>
<path d="M46.8,320.1v-36.9c0-12.1-5.1-16.4-15.1-16.4c-5,0-10.6,1.2-16.7,3.3v50l11.2,9.8h-40.2l11.2-9.8V272l-10.7-5.6L15,253.3
	v13.9c9.7-7.8,19.5-12.9,30.5-12.9c11.7,0,19,6.4,19,22.4v43.4l11.2,9.8H35.6L46.8,320.1"/>
<path d="M159.7,281.3v-12.1c0-19.5-7-43.9-30.4-43.9c-23.4,0-30.4,24.5-30.4,43.9v12.1c0,19.6,7,43.9,30.4,43.9
	C152.7,325.2,159.7,301,159.7,281.3z M75.1,275.3c0-27.6,19-56.5,54.2-56.5c35.2,0,54.2,29,54.2,56.5c0,27.6-19.2,56.5-54.2,56.5
	C94.3,331.8,75.1,302.8,75.1,275.3z"/>
<path d="M204.7,311.2v-47.7h-15.9l33.6-29.9v22.4h23.7v7.5h-23.7v48.9c0,7.2,3.4,10,9.2,10c5.9,0,10.7-2,14.3-5.3
	c-3.6,9.5-13.1,14.6-23.5,14.6C211.7,331.8,204.7,327.1,204.7,311.2"/>
<path d="M306.1,320.1v-37.8c0-13.1-6.4-15.4-14-15.4c-5.5,0-10.1,0.9-16.8,3.3v50l11.2,9.8h-40.2l11.2-9.8v-82.4l-10.7-5.9
	l28.5-13.1v48.4c10.1-8.4,19.6-12.9,30.8-12.9c11.2,0,17.8,5.5,17.8,21v44.9l11.2,9.8h-40.2L306.1,320.1"/>
<path d="M350.3,281.3h33.3c0-10.3-4.8-20.6-16-20.6C358.9,260.8,351.2,267.3,350.3,281.3z M400.5,302.8c0,14.9-11.4,29-30.8,29
	c-21.3,0-35.7-15.7-35.7-38.2c0-23,14.3-39.4,35.4-39.4c18.8,0,32.1,13.1,32.1,33.6h-51.1c1.2,18.5,12.1,29,26.5,29
	C387.4,316.8,395.8,311.2,400.5,302.8z"/>
<path d="M469,266.2c0,6.5-4.5,10.9-10.6,10.9c-7.5,0-10.1-6.5-16.7-6.5c-5.1,0-8.3,3.7-8.3,9.8v39.7l11.2,9.8h-40.2l11.2-9.8V272
	l-10.7-5.6l28.5-13.1v16.2c5.9-9.7,14.3-14.8,22.3-14.8C463.1,254.7,469,259.2,469,266.2"/>
</svg>
